<svg viewBox="0 0 90 90" fill="none" xmlns="http://www.w3.org/2000/svg" id="img10">
  <g clip-path="url(#clip0)">
  <path d="M78.1135 0.657587C80.0169 -0.888936 82.8628 0.465634 82.8628 2.91796V41.9431L50.8249 23.0117L78.1135 0.657587Z" fill="#FFC850"/>
  <path d="M79.9503 40.2221L60.4433 28.6954L76.6964 10.3718C77.8328 9.09071 79.9503 9.89438 79.9503 11.607V40.2221Z" fill="#EBAF4B"/>
  <path d="M11.8861 0.657587C9.98259 -0.888936 7.13687 0.465634 7.13687 2.91796V41.9431L39.1748 23.0117L11.8861 0.657587Z" fill="#FFC850"/>
  <path d="M10.0494 40.2221L29.5564 28.6954L13.3033 10.3718C12.1669 9.09071 10.0494 9.89438 10.0494 11.607C10.0494 11.607 10.0494 40.2221 10.0494 40.2221Z" fill="#EBAF4B"/>
  <path d="M44.9998 90C67.5198 90 85.7758 72.7222 85.7758 51.409C85.7758 30.0958 67.5198 12.818 44.9998 12.818C22.4799 12.818 4.22385 30.0958 4.22385 51.409C4.22385 72.7222 22.4799 90 44.9998 90Z" fill="#FFDC64"/>
  <path d="M50.8249 75.4374V78.3499C50.8249 81.5671 48.217 84.175 44.9999 84.175C41.7827 84.175 39.1748 81.5671 39.1748 78.3499V75.4374L44.9999 72.5249L50.8249 75.4374Z" fill="#FF8087"/>
  <path d="M48.2155 60.4445H41.7841C40.3956 60.4445 39.6267 62.0541 40.4996 63.1339L43.7155 67.1126C44.3765 67.9301 45.6231 67.9301 46.2842 67.1126L49.5001 63.1339C50.3729 62.0541 49.6042 60.4445 48.2155 60.4445Z" fill="#5D5360"/>
  <path d="M84.3175 76.8935C84.0914 76.8935 83.8617 76.841 83.6469 76.7294C74.8416 72.1508 61.0606 69.4302 60.9219 69.4032C60.1326 69.2495 59.6177 68.4845 59.7714 67.6951C59.9257 66.9051 60.683 66.3896 61.4794 66.5446C62.0597 66.6576 75.8082 69.3705 84.9909 74.1452C85.704 74.5165 85.9821 75.3952 85.6109 76.1092C85.3514 76.6077 84.8438 76.8935 84.3175 76.8935Z" fill="#E1A546"/>
  <path d="M87.2322 66.7004C87.1071 66.7004 86.9798 66.684 86.8532 66.6499C78.6908 64.4556 63.8487 64.8723 63.7023 64.8786C62.8846 64.9021 62.2261 64.2706 62.2027 63.467C62.1785 62.6628 62.8108 61.9915 63.6143 61.9674C64.24 61.9476 79.0366 61.5322 87.61 63.8369C88.3864 64.0459 88.8466 64.8445 88.6381 65.6216C88.463 66.2717 87.8751 66.6997 87.2322 66.7004Z" fill="#E1A546"/>
  <path d="M55.1938 87.0875C32.6741 87.0875 14.4183 69.8098 14.4183 48.4965C14.4183 32.8458 24.2681 19.3811 38.4156 13.326C19.028 16.3058 4.22443 32.2181 4.22443 51.409C4.22443 72.7223 22.4802 90 44.9999 90C50.9829 90 56.6591 88.7704 61.778 86.5795C59.6338 86.9091 57.4362 87.0875 55.1938 87.0875Z" fill="#FFC850"/>
  <path d="M5.68193 76.8936C5.15581 76.8936 4.64798 76.6085 4.38853 76.1093C4.01728 75.3954 4.29536 74.5165 5.00851 74.1453C14.1913 69.3705 27.9397 66.6577 28.52 66.5447C29.3099 66.3861 30.0737 66.9059 30.228 67.6951C30.3817 68.4844 29.8668 69.2496 29.0775 69.4032C28.9388 69.4303 15.1576 72.1508 6.35253 76.7294C6.13773 76.841 5.90816 76.8936 5.68193 76.8936Z" fill="#E1A546"/>
  <path d="M2.76727 66.7004C2.12444 66.7004 1.53645 66.2717 1.36155 65.6216C1.15324 64.8445 1.61326 64.0459 2.38969 63.8369C10.9638 61.5315 25.7582 61.9497 26.3854 61.9675C27.1889 61.9917 27.821 62.6629 27.7969 63.4671C27.7727 64.2706 27.0766 64.9078 26.2973 64.8786C26.1481 64.8737 11.3037 64.4555 3.14643 66.65C3.01969 66.6841 2.89242 66.7004 2.76727 66.7004Z" fill="#E1A546"/>
  <path d="M28.2528 56.5059C25.4494 56.5059 23.1558 54.2123 23.1558 51.409V48.4965C23.1558 45.6931 25.4494 43.3995 28.2528 43.3995C31.0561 43.3995 33.3497 45.6931 33.3497 48.4965V51.409C33.3497 54.2122 31.0561 56.5059 28.2528 56.5059Z" fill="#4B3F4E"/>
  <path d="M28.2528 43.3995C28.0035 43.3995 27.7645 43.4384 27.5247 43.4735V50.6809C27.5247 52.2895 28.8286 53.5934 30.4372 53.5934C32.0458 53.5934 33.3497 52.2895 33.3497 50.6809V48.4965C33.3497 45.6931 31.056 43.3995 28.2528 43.3995Z" fill="#5D5360"/>
  <path d="M28.2532 49.2252C29.4596 49.2252 30.4376 48.2472 30.4376 47.0408C30.4376 45.8344 29.4596 44.8564 28.2532 44.8564C27.0467 44.8564 26.0687 45.8344 26.0687 47.0408C26.0687 48.2472 27.0467 49.2252 28.2532 49.2252Z" fill="white"/>
  <path d="M61.7468 56.5059C58.9434 56.5059 56.6498 54.2123 56.6498 51.409V48.4965C56.6498 45.6931 58.9434 43.3995 61.7468 43.3995C64.5502 43.3995 66.8438 45.6931 66.8438 48.4965V51.409C66.8438 54.2122 64.5502 56.5059 61.7468 56.5059Z" fill="#4B3F4E"/>
  <path d="M61.7468 43.3995C61.4976 43.3995 61.2585 43.4384 61.0187 43.4735V50.6809C61.0187 52.2895 62.3227 53.5934 63.9313 53.5934C65.5398 53.5934 66.8438 52.2895 66.8438 50.6809V48.4965C66.8438 45.6931 64.5502 43.3995 61.7468 43.3995Z" fill="#5D5360"/>
  <path d="M61.7464 49.2252C62.9529 49.2252 63.9309 48.2472 63.9309 47.0408C63.9309 45.8344 62.9529 44.8564 61.7464 44.8564C60.54 44.8564 59.562 45.8344 59.562 47.0408C59.562 48.2472 60.54 49.2252 61.7464 49.2252Z" fill="white"/>
  <path d="M46.1264 67.1748L42.9105 60.8089C42.8521 60.6932 42.8194 60.5666 42.7753 60.4443H41.7841C40.3956 60.4443 39.6267 62.0539 40.4995 63.1338L43.7154 67.1124C44.3394 67.8841 45.4698 67.9008 46.1522 67.2156C46.1445 67.2007 46.1343 67.1905 46.1264 67.1748Z" fill="#4B3F4E"/>
  <path d="M44.9999 72.5249L39.1748 75.4374V78.3499C39.1748 78.812 39.2422 79.2559 39.3438 79.6869C40.8093 79.5051 42.2246 79.0806 43.5435 78.4295V79.8061C43.5435 80.6103 44.1955 81.2624 44.9999 81.2624C45.8042 81.2624 46.4562 80.6105 46.4562 79.8061V78.4297C47.7753 79.0808 49.1907 79.5053 50.656 79.6869C50.7576 79.2559 50.8249 78.8119 50.8249 78.3499V75.4374L44.9999 72.5249Z" fill="#E6646E"/>
  <path d="M52.2812 76.8936C50.2212 76.8936 48.236 76.2813 46.5414 75.1229C45.634 74.503 44.3663 74.503 43.4575 75.1229C41.7637 76.2813 39.7784 76.8936 37.7184 76.8936C35.212 76.8936 32.7978 75.9663 30.9206 74.2832C30.3219 73.7457 30.2722 72.8248 30.809 72.2261C31.3458 71.6274 32.2646 71.5776 32.8662 72.1144C35.3115 74.3087 39.1386 74.5485 41.8143 72.7181C43.72 71.4168 46.2806 71.4168 48.1848 72.7181C50.8612 74.5476 54.6889 74.3073 57.1343 72.1151C57.7324 71.579 58.6524 71.6274 59.1908 72.2275C59.7277 72.8262 59.6772 73.7471 59.0785 74.2839C57.201 75.967 54.7877 76.8936 52.2812 76.8936Z" fill="#EBAF4B"/>
</g>
</svg>