<svg viewBox="0 0 90 90" fill="none" xmlns="http://www.w3.org/2000/svg" id="img2">
  <path d="M84.1936 0C84.1936 0 83.4959 32.2877 65.6856 47.0867L52.7117 36.5625C64.4368 11.7285 84.1936 0 84.1936 0Z" fill="#AEA8AF"/>
  <path d="M65.6854 47.0867L59.9402 42.426L59.5088 38.6037C62.6414 31.4163 70.8695 14.4343 84.1936 0C84.1936 0 83.4957 32.2877 65.6854 47.0867Z" fill="#9C969E"/>
  <path d="M5.8064 0C5.8064 0 6.50407 32.2877 24.3144 47.0867L37.2883 36.5625C25.5632 11.7285 5.8064 0 5.8064 0Z" fill="#AEA8AF"/>
  <path d="M24.3146 47.0867L30.0598 42.426L30.4912 38.6037C27.3586 31.4163 19.1304 14.4343 5.8064 0C5.8064 0 6.50425 32.2877 24.3146 47.0867Z" fill="#9C969E"/>
  <path d="M70.6004 63.5294C69.0335 60.808 68.1033 57.8027 68.2158 54.7026C68.2225 54.5175 68.226 54.3315 68.226 54.145C68.226 43.4823 57.8275 34.8386 45.0002 34.8386C32.1729 34.8386 21.7744 43.4825 21.7744 54.145C21.7744 54.3315 21.7777 54.5173 21.7846 54.7026C21.8969 57.8027 20.9668 60.808 19.3999 63.5294C18.1253 65.7432 17.4196 68.1592 17.4196 70.6934C17.4194 81.3561 29.7677 90 45 90C60.2323 90 72.5806 81.3561 72.5806 70.6936C72.5806 68.1592 71.875 65.7432 70.6004 63.5294Z" fill="#C9C6CA"/>
  <path d="M28.0645 72.9677C28.0645 70.033 28.7703 67.2358 30.0449 64.6724C31.6118 61.5213 32.542 58.0414 32.4295 54.4518C32.4229 54.2375 32.4195 54.0221 32.4195 53.8063C32.4195 45.843 36.7587 38.871 43.2721 34.9112C31.255 35.6486 21.7744 43.9675 21.7744 54.145C21.7744 54.3315 21.7777 54.5173 21.7844 54.7026C21.8969 57.8027 20.9667 60.808 19.3998 63.5294C18.1252 65.7432 17.4194 68.1592 17.4194 70.6936C17.4194 79.2881 25.4473 86.5629 36.5363 89.0648C31.3226 84.9978 28.0645 79.2958 28.0645 72.9677Z" fill="#C0BCC1"/>
  <path d="M31.9354 68.2258C29.5304 68.2258 27.5806 66.276 27.5806 63.871V62.4194C27.5806 60.0143 29.5304 58.0646 31.9354 58.0646C34.3404 58.0646 36.2902 60.0143 36.2902 62.4194V63.871C36.2904 66.276 34.3406 68.2258 31.9354 68.2258Z" fill="#4B3F4E"/>
  <path d="M31.9354 58.0646V63.1452C31.9354 64.3477 32.9103 65.3226 34.1128 65.3226C35.3153 65.3226 36.2902 64.3477 36.2902 63.1452V62.4194C36.2904 60.0142 34.3406 58.0646 31.9354 58.0646Z" fill="#5D5360"/>
  <path d="M31.9359 62.4196C32.7376 62.4196 33.3875 61.7697 33.3875 60.968C33.3875 60.1663 32.7376 59.5164 31.9359 59.5164C31.1342 59.5164 30.4843 60.1663 30.4843 60.968C30.4843 61.7697 31.1342 62.4196 31.9359 62.4196Z" fill="white"/>
  <path d="M58.0646 68.2258C55.6596 68.2258 53.7098 66.276 53.7098 63.871V62.4194C53.7098 60.0143 55.6596 58.0646 58.0646 58.0646C60.4696 58.0646 62.4194 60.0143 62.4194 62.4194V63.871C62.4194 66.276 60.4696 68.2258 58.0646 68.2258Z" fill="#4B3F4E"/>
  <path d="M58.0646 58.0646V63.1452C58.0646 64.3477 59.0395 65.3226 60.242 65.3226C61.4445 65.3226 62.4194 64.3477 62.4194 63.1452V62.4194C62.4194 60.0142 60.4696 58.0646 58.0646 58.0646Z" fill="#5D5360"/>
  <path d="M58.0641 62.4196C58.8658 62.4196 59.5157 61.7697 59.5157 60.968C59.5157 60.1663 58.8658 59.5164 58.0641 59.5164C57.2624 59.5164 56.6125 60.1663 56.6125 60.968C56.6125 61.7697 57.2624 62.4196 58.0641 62.4196Z" fill="white"/>
  <path d="M58.0646 72.5806C49.355 69.6774 47.9034 65.3226 47.9034 62.4194C47.9034 59.5162 46.4518 58.0646 45.0002 58.0646C43.5486 58.0646 42.097 59.5162 42.097 62.4194C42.097 65.3226 40.6454 69.6774 31.9358 72.5806C25.8562 74.6072 24.0279 78.7576 24.4608 83.5465C29.5109 87.4985 36.8292 90 45 90C53.1708 90 60.4891 87.4983 65.5395 83.5465C65.9725 78.7576 64.144 74.6072 58.0646 72.5806Z" fill="#DBD9DC"/>
  <path d="M49.924 88.0643C48.2031 88.0643 46.5692 87.4881 45.2006 86.3979C45.0865 86.3058 44.9135 86.3065 44.7994 86.3972C43.4301 87.4881 41.7969 88.0643 40.076 88.0643C37.4776 88.0643 35.0641 86.731 33.6196 84.4984C33.1843 83.8257 33.3772 82.9269 34.0506 82.4911C34.7226 82.0559 35.6221 82.2494 36.0578 82.9222C36.9643 84.3242 38.4671 85.1613 40.076 85.1613C41.1328 85.1613 42.1407 84.8034 42.9899 84.1271C44.1538 83.1987 45.845 83.198 47.0102 84.1278C47.8587 84.8034 48.8665 85.1613 49.9242 85.1613C51.5331 85.1613 53.0351 84.3242 53.9423 82.9215C54.3783 82.2494 55.2771 82.0568 55.9496 82.4904C56.623 82.9264 56.8157 83.8252 56.3806 84.4977C54.9359 86.731 52.5224 88.0643 49.924 88.0643Z" fill="#C0BCC1"/>
  <path d="M45 72.5806C48.654 72.5806 51.6161 74.736 51.6161 77.3951C51.6161 79.9594 48.8355 81.3096 46.8288 82.308C45.6657 82.8867 44.3345 82.8867 43.1714 82.308C41.1646 81.3096 38.3841 79.9594 38.3841 77.3951C38.3839 74.7362 41.346 72.5806 45 72.5806Z" fill="#FF96A0"/>
  <path d="M46.4794 81.6954C44.4726 80.5129 41.6921 78.9135 41.6921 75.8762C41.6921 74.7803 42.0571 73.7605 42.6785 72.8914C40.1715 73.5762 38.3839 75.3314 38.3839 77.3951C38.3839 79.9592 41.1644 81.3096 43.1712 82.308C44.3343 82.8867 45.6655 82.8867 46.8287 82.308C46.9898 82.2278 47.1574 82.1442 47.3268 82.0591C47.0384 81.9735 46.7536 81.8569 46.4794 81.6954Z" fill="#FF8087"/>
  <path d="M36.5363 89.0648C31.7387 85.3225 28.6314 80.1882 28.1603 74.463C25.0877 76.7102 24.1351 79.9479 24.4605 83.5465C24.4591 83.5492 24.4582 83.5518 24.4568 83.5545C27.6813 86.0734 31.828 88.0026 36.5363 89.0648Z" fill="#C9C6CA"/>
</svg>