<svg viewBox="0 0 90 90" fill="none" xmlns="http://www.w3.org/2000/svg" id="img3">
  <path d="M11.6121 50.8061C18.0253 50.8061 23.2242 45.6072 23.2242 39.194C23.2242 32.7808 18.0253 27.5819 11.6121 27.5819C5.19892 27.5819 0 32.7808 0 39.194C0 45.6072 5.19892 50.8061 11.6121 50.8061Z" fill="#965A50"/>
  <path d="M11.6122 46.4519C15.6207 46.4519 18.8702 43.2024 18.8702 39.1939C18.8702 35.1854 15.6207 31.9359 11.6122 31.9359C7.60368 31.9359 4.35416 35.1854 4.35416 39.1939C4.35416 43.2024 7.60368 46.4519 11.6122 46.4519Z" fill="#EBC9A0"/>
  <path d="M78.3878 50.8061C84.801 50.8061 89.9999 45.6072 89.9999 39.194C89.9999 32.7808 84.801 27.5819 78.3878 27.5819C71.9746 27.5819 66.7757 32.7808 66.7757 39.194C66.7757 45.6072 71.9746 50.8061 78.3878 50.8061Z" fill="#965A50"/>
  <path d="M78.3879 46.4519C82.3964 46.4519 85.6459 43.2024 85.6459 39.1939C85.6459 35.1854 82.3964 31.9359 78.3879 31.9359C74.3794 31.9359 71.1299 35.1854 71.1299 39.1939C71.1299 43.2024 74.3794 46.4519 78.3879 46.4519Z" fill="#EBC9A0"/>
  <path d="M77.7987 46.0633C76.3282 43.5257 75.4839 40.6747 75.4839 37.7418V37.7416C75.4839 25.0198 67.6855 14.1289 56.6129 9.56072V4.35479L49.3549 7.25799L47.9033 1.45158C44.0746 2.72793 40.8086 5.40631 38.3485 8.00787C24.7155 11.0459 14.5161 23.1936 14.5161 37.742C14.5161 40.6749 13.6718 43.5259 12.2012 46.0635C9.96531 49.9215 8.7097 54.2341 8.7097 58.7904C8.7097 75.2252 24.9573 88.5484 45.0001 88.5484C65.0428 88.5484 81.2905 75.2252 81.2905 58.7904C81.2903 54.2341 80.0345 49.9213 77.7987 46.0633Z" fill="#AF6E5A"/>
  <path d="M24.6774 63.9919C24.6774 58.6763 25.933 53.6447 28.169 49.1439C29.6397 46.1835 30.4838 42.8572 30.4838 39.4355C30.4838 24.6637 38.2128 12.0213 49.2034 6.6519L47.9033 1.45158C44.0746 2.72793 40.8086 5.40631 38.3483 8.00787C24.7155 11.0459 14.5161 23.1936 14.5161 37.742C14.5161 40.6749 13.672 43.5259 12.2013 46.0635C9.96531 49.9215 8.7097 54.2341 8.7097 58.7904C8.7097 72.0557 19.2974 83.289 33.9195 87.1304C28.1746 80.9884 24.6774 72.8822 24.6774 63.9919Z" fill="#965A50"/>
  <path d="M45.0001 82.7421C57.0256 82.7421 66.7743 74.9432 66.7743 65.3227C66.7743 63.3268 66.3499 61.4124 65.5728 59.6298C64.4461 57.0446 64.8296 54.0774 66.6398 51.915C68.9485 49.1568 70.1393 45.4327 69.5108 41.4322C68.6478 35.9375 64.2054 31.5031 58.7094 30.6475C54.5097 29.9938 50.617 31.345 47.8281 33.8888C47.0353 34.6117 46.0175 34.9733 45.0003 34.9733C43.9825 34.9733 42.9645 34.6119 42.1718 33.8888C39.3828 31.345 35.4901 29.9938 31.2904 30.6475C25.7944 31.5029 21.3522 35.9375 20.489 41.4322C19.8606 45.4325 21.0513 49.1566 23.36 51.915C25.1702 54.0776 25.5538 57.0446 24.427 59.6298C23.6501 61.4126 23.2255 63.327 23.2255 65.3227C23.2259 74.943 32.9745 82.7421 45.0001 82.7421Z" fill="#FAEBC8"/>
  <path d="M23.2257 65.3224C23.2257 68.5782 24.3627 71.6145 26.3061 74.2213C25.2623 70.985 24.6773 67.5564 24.6773 63.9917C24.6773 58.6761 25.9329 53.6445 28.1688 49.1437C29.6396 46.1833 30.4837 42.857 30.4837 39.4353C30.4837 36.393 30.8282 33.4489 31.4449 30.6321C31.393 30.6395 31.3424 30.6392 31.2903 30.6473C25.7944 31.5026 21.3524 35.9372 20.489 41.4318C19.8606 45.4322 21.0515 49.1563 23.36 51.9145C25.1702 54.077 25.5539 57.044 24.4272 59.6294C23.6501 61.4123 23.2257 63.3268 23.2257 65.3224Z" fill="#F5DCB4"/>
  <path d="M42.0954 58.0647C41.8771 58.0647 41.656 58.0158 41.4477 57.9116L38.5445 56.4599C37.8272 56.1013 37.5366 55.2294 37.8952 54.5121C38.2552 53.7947 39.1256 53.5041 39.843 53.8627L42.7461 55.3143C43.4635 55.6729 43.7541 56.5448 43.3955 57.2622C43.1401 57.7711 42.6284 58.0647 42.0954 58.0647Z" fill="#5D5360"/>
  <path d="M47.9048 58.0647C47.3718 58.0647 46.8599 57.7713 46.6049 57.2622C46.2463 56.5448 46.5369 55.6731 47.2542 55.3143L50.1574 53.8627C50.8733 53.5041 51.745 53.7947 52.1052 54.5121C52.4638 55.2294 52.1732 56.1012 51.4558 56.4599L48.5527 57.9116C48.3442 58.0157 48.1231 58.0647 47.9048 58.0647Z" fill="#5D5360"/>
  <path d="M32.0482 63.8714C31.1691 63.8714 30.4765 64.6503 30.5984 65.5209C31.4994 71.9575 37.6038 76.9358 44.9999 76.9358C52.3963 76.9358 58.5005 71.9575 59.4015 65.5209C59.5233 64.6503 58.8307 63.8714 57.9517 63.8714H32.0482Z" fill="#4B3F4E"/>
  <path d="M36.6358 74.5376C39.0013 76.0428 41.8827 76.9351 45 76.9351C48.1173 76.9351 50.9987 76.0428 53.3642 74.5376C52.3155 70.9049 48.9586 68.2254 45 68.2254C41.0414 68.2254 37.6845 70.9047 36.6358 74.5376Z" fill="#E6646E"/>
  <path d="M31.9355 47.9032C29.5305 47.9032 27.5807 45.9534 27.5807 43.5483V42.0967C27.5807 39.6916 29.5305 37.7418 31.9355 37.7418C34.3406 37.7418 36.2904 39.6916 36.2904 42.0967V43.5483C36.2905 45.9534 34.3408 47.9032 31.9355 47.9032Z" fill="#4B3F4E"/>
  <path d="M31.9353 37.7418V42.8225C31.9353 44.0251 32.9102 45 34.1127 45C35.3153 45 36.2901 44.0251 36.2901 42.8225V42.0967C36.2903 39.6914 34.3406 37.7418 31.9353 37.7418Z" fill="#5D5360"/>
  <path d="M31.9359 42.0976C32.7376 42.0976 33.3875 41.4477 33.3875 40.646C33.3875 39.8443 32.7376 39.1944 31.9359 39.1944C31.1342 39.1944 30.4843 39.8443 30.4843 40.646C30.4843 41.4477 31.1342 42.0976 31.9359 42.0976Z" fill="white"/>
  <path d="M58.0646 47.9032C55.6596 47.9032 53.7098 45.9534 53.7098 43.5483V42.0967C53.7098 39.6916 55.6596 37.7418 58.0646 37.7418C60.4697 37.7418 62.4194 39.6916 62.4194 42.0967V43.5483C62.4194 45.9534 60.4697 47.9032 58.0646 47.9032Z" fill="#4B3F4E"/>
  <path d="M58.0647 37.7418V42.8225C58.0647 44.0251 59.0395 45 60.2421 45C61.4446 45 62.4195 44.0251 62.4195 42.8225V42.0967C62.4195 39.6914 60.4697 37.7418 58.0647 37.7418Z" fill="#5D5360"/>
  <path d="M58.0641 42.0976C58.8658 42.0976 59.5157 41.4477 59.5157 40.646C59.5157 39.8443 58.8658 39.1944 58.0641 39.1944C57.2624 39.1944 56.6125 39.8443 56.6125 40.646C56.6125 41.4477 57.2624 42.0976 58.0641 42.0976Z" fill="white"/>
  <path d="M44.9999 76.9354C45.4907 76.9354 45.9734 76.9057 46.4515 76.8625V74.0322C46.4515 73.2307 45.8021 72.5806 44.9999 72.5806C44.1976 72.5806 43.5483 73.2307 43.5483 74.0322V76.8625C44.0264 76.9057 44.5091 76.9354 44.9999 76.9354Z" fill="#FF8087"/>
</svg>