<svg viewBox="0 0 90 90" fill="none" xmlns="http://www.w3.org/2000/svg" id="img4">
  <g clip-path="url(#clip0)">
    <path d="M45.0006 2.23822C45.5079 2.23804 46.0152 2.10339 46.4723 1.83427C47.8782 1.00652 50.2904 0 53.7092 0C60.2691 0 65.3225 2.9032 65.3225 2.9032L62.4193 5.8064C65.5397 6.63854 67.3185 7.13706 70.7458 8.93284C82.799 15.2481 88.5482 29.0322 88.5482 29.0322H82.7418C89.9996 40.6451 89.9996 56.6129 89.9996 56.6129L85.6449 55.1613C85.6449 55.1613 85.6449 68.2259 79.8385 76.9354L75.4837 74.0322C75.4837 74.0322 71.1289 81.2902 63.8707 85.6452L60.9675 82.742C60.9675 82.742 53.7095 88.5484 44.9997 90C36.2901 88.5484 29.032 82.742 29.032 82.742L26.1288 85.6452C18.8708 81.2904 14.5158 74.0322 14.5158 74.0322L10.161 76.9354C4.3548 68.2259 4.3548 55.1613 4.3548 55.1613L0 56.6129C0 56.6129 0 40.6451 7.25799 29.0323H1.4516C1.4516 29.0323 7.20087 15.2483 19.254 8.93301C22.6814 7.13723 24.4601 6.63872 27.5806 5.80657L24.6774 2.90337C24.6774 2.90337 29.7305 0.000175781 36.2907 0.000175781C39.7094 0.000175781 42.1217 1.0067 43.5276 1.83463C43.9846 2.10375 44.4919 2.23839 44.9992 2.23857" fill="#D26437"/>
    <path d="M32.9095 16.0096C32.9095 16.0096 37.1066 7.43958 44.1702 2.10586C43.9496 2.03923 43.7323 1.95504 43.5274 1.83445C42.1217 1.00652 39.7094 0 36.2907 0C29.7307 0 24.6774 2.9032 24.6774 2.9032L27.5805 5.8064C24.4601 6.63854 22.6814 7.13706 19.254 8.93284C7.20086 15.2481 1.4516 29.0322 1.4516 29.0322H7.25799C0 40.6451 0 56.6129 0 56.6129L4.3548 55.1613C4.3548 55.1613 4.3548 68.2259 10.1612 76.9354L14.516 74.0322C14.516 74.0322 18.8708 81.2902 26.1289 85.6452L29.0321 82.742C29.0321 82.742 36.2901 88.5484 44.9999 90C44.9999 89.9998 34.4757 85.645 32.9095 16.0096Z" fill="#B44632"/>
    <path d="M72.1109 8.80856C75.5467 8.14235 78.6946 10.9343 78.3629 14.4183C77.9511 18.7435 74.7731 26.3708 70.4183 30.8619L56.4315 16.7843C61.7908 12.53 68.4477 9.51889 72.1109 8.80856Z" fill="#EBAF4B"/>
    <path d="M60.2238 20.6012C64.6809 17.1942 71.27 12.7123 73.095 12.529C75.1924 12.3182 76.5 15.2114 75.68 18.3338C74.9681 21.0447 72.2526 26.0172 69.5495 29.9873L60.2238 20.6012Z" fill="#E18C46"/>
    <path d="M17.8893 8.80856C14.4534 8.14235 11.3056 10.9343 11.6373 14.4183C12.0491 18.7435 15.2271 26.3708 19.5819 30.8619L33.5687 16.7843C28.2094 12.53 21.5525 9.51889 17.8893 8.80856Z" fill="#EBAF4B"/>
    <path d="M29.7764 20.6012C25.3193 17.1942 18.7302 12.7123 16.9052 12.529C14.8078 12.3182 13.5002 15.2114 14.3202 18.3338C15.0321 21.0447 17.7475 26.0172 20.4507 29.9873L29.7764 20.6012Z" fill="#E18C46"/>
    <path d="M62.4195 17.4194C56.6902 12.9633 45.0001 20.3225 45.0001 20.3225C45.0001 20.3225 33.31 12.9633 27.5807 17.4194C14.5162 27.5805 11.613 56.6129 13.0646 62.4193C14.1208 66.644 23.2258 74.0322 33.3871 76.9354H56.6129C66.7741 74.0322 75.8792 66.6442 76.9355 62.4193C78.3871 56.6129 75.4839 27.5805 62.4195 17.4194Z" fill="#FFC850"/>
    <path d="M22.0141 70.9831C20.8991 64.021 23.536 33.1299 32.9097 16.0096C30.939 15.9147 29.0603 16.2685 27.5807 17.4194C14.5162 27.5805 11.613 56.6129 13.0646 62.4192C13.7004 64.9626 17.2638 68.6487 22.2082 71.8161C22.1336 71.533 22.0566 71.2485 22.0141 70.9831Z" fill="#EBAF4B"/>
    <path d="M76.9354 55.1426C75.8791 59.3674 66.7742 66.7556 56.6129 69.6588H33.3871C23.2259 66.7556 14.1208 59.3675 13.0645 55.1426C12.9985 54.8788 12.945 54.5515 12.8976 54.1955C12.6102 57.9727 12.6961 60.9457 13.0645 62.4193C14.1208 66.644 23.2257 74.0322 33.3871 76.9354H56.6129C66.7741 74.0322 75.8791 66.6442 76.9354 62.4193C77.3039 60.9457 77.3898 57.9727 77.1024 54.1955C77.0551 54.5513 77.0015 54.8786 76.9354 55.1426Z" fill="#FAEBC8"/>
    <path d="M32.9522 74.5786C33.7058 79.2079 37.7228 82.7418 42.565 82.7418H47.435C52.2572 82.7418 56.2611 79.2371 57.0384 74.636L45.001 72.5806L32.9522 74.5786Z" fill="#F5DCB4"/>
    <path d="M52.9839 60.9677C49.6168 60.9677 46.6698 62.3286 45.0001 64.3701C43.3303 62.3286 40.3832 60.9677 37.0163 60.9677C31.8053 60.9677 27.5809 64.2172 27.5809 68.2257C27.5809 72.2342 31.8053 75.4837 37.0163 75.4837C40.3834 75.4837 43.3303 74.1228 45.0001 72.0812C46.6698 74.1228 49.617 75.4837 52.9839 75.4837C58.1949 75.4837 62.4193 72.2342 62.4193 68.2257C62.4193 64.2172 58.1951 60.9677 52.9839 60.9677Z" fill="#FAEBC8"/>
    <path d="M52.3857 76.8885C49.8497 76.8885 47.461 76.0479 45.4779 74.458C45.1971 74.2326 44.8044 74.2326 44.5209 74.458C42.5391 76.0478 40.1505 76.8885 37.6145 76.8885C31.4876 76.8885 26.5034 71.8682 26.5034 65.6974C26.5034 64.8959 27.1527 64.2458 27.955 64.2458C28.7572 64.2458 29.4066 64.8959 29.4066 65.6974C29.4066 70.2677 33.0881 73.9853 37.6145 73.9853C39.4828 73.9853 41.2435 73.3659 42.7051 72.1927C44.0575 71.1097 45.9442 71.1097 47.2938 72.1927C48.7569 73.3657 50.5175 73.9853 52.3859 73.9853C56.9122 73.9853 60.5938 70.2677 60.5938 65.6974C60.5938 64.8959 61.2431 64.2458 62.0454 64.2458C62.8476 64.2458 63.497 64.8959 63.497 65.6974C63.4968 71.8682 58.5125 76.8885 52.3857 76.8885Z" fill="#D4AF91"/>
    <path d="M37.168 63.5042L40.2514 66.075C43.002 68.3682 46.9984 68.3682 49.7488 66.075L52.8322 63.5044C54.1982 62.3655 53.4018 60.142 51.6234 60.142C47.6854 60.142 42.3151 60.142 38.3769 60.1419C36.5985 60.1419 35.802 62.3653 37.168 63.5042Z" fill="#5D5360"/>
    <path d="M45.0001 37.7419C44.1977 37.7419 43.5485 37.0919 43.5485 36.2903V24.4393C43.5485 23.6378 44.1978 22.9877 45.0001 22.9877C45.8024 22.9877 46.4517 23.6378 46.4517 24.4393V36.2903C46.4517 37.0919 45.8025 37.7419 45.0001 37.7419Z" fill="#FFDC64"/>
    <path d="M30.4839 52.2579C28.0789 52.2579 26.1291 50.3081 26.1291 47.9031V46.4515C26.1291 44.0465 28.0789 42.0967 30.4839 42.0967C32.889 42.0967 34.8387 44.0465 34.8387 46.4515V47.9031C34.8389 50.3083 32.8891 52.2579 30.4839 52.2579Z" fill="#4B3F4E"/>
    <path d="M30.4839 42.0967V47.1773C30.4839 48.3798 31.4588 49.3547 32.6613 49.3547C33.8638 49.3547 34.8387 48.3798 34.8387 47.1773V46.4515C34.8389 44.0465 32.8891 42.0967 30.4839 42.0967Z" fill="#5D5360"/>
    <path d="M30.4841 46.4515C31.2858 46.4515 31.9357 45.8016 31.9357 44.9999C31.9357 44.1982 31.2858 43.5483 30.4841 43.5483C29.6824 43.5483 29.0325 44.1982 29.0325 44.9999C29.0325 45.8016 29.6824 46.4515 30.4841 46.4515Z" fill="white"/>
    <path d="M59.5162 52.2579C57.1112 52.2579 55.1614 50.3081 55.1614 47.9031V46.4515C55.1614 44.0465 57.1112 42.0967 59.5162 42.0967C61.9213 42.0967 63.871 44.0465 63.871 46.4515V47.9031C63.871 50.3083 61.9213 52.2579 59.5162 52.2579Z" fill="#4B3F4E"/>
    <path d="M59.5163 42.0967V47.1773C59.5163 48.3798 60.4911 49.3547 61.6937 49.3547C62.8962 49.3547 63.8711 48.3798 63.8711 47.1773V46.4515C63.8711 44.0465 61.9213 42.0967 59.5163 42.0967Z" fill="#5D5360"/>
    <path d="M59.5161 46.4515C60.3177 46.4515 60.9676 45.8016 60.9676 44.9999C60.9676 44.1982 60.3177 43.5483 59.5161 43.5483C58.7144 43.5483 58.0645 44.1982 58.0645 44.9999C58.0645 45.8016 58.7144 46.4515 59.5161 46.4515Z" fill="white"/>
    <path d="M45.8706 65.8533L42.787 62.3073C42.273 61.7162 42.0661 60.9135 42.1015 60.1419C40.7879 60.1419 39.5193 60.1419 38.3769 60.1419C36.5985 60.1419 35.802 62.3653 37.1678 63.5042L40.2512 66.075C42.3504 67.8253 45.1718 68.2296 47.6148 67.3083C47.0014 66.9318 46.4078 66.471 45.8706 65.8533Z" fill="#4B3F4E"/>
    <path d="M13.0647 55.1426C12.9986 54.8788 12.9452 54.5515 12.8977 54.1955C12.6103 57.9727 12.6963 60.9457 13.0647 62.4193C13.7005 64.9626 17.264 68.6486 22.2083 71.8162C22.1338 71.533 22.0568 71.2486 22.0143 70.9831C21.7928 69.6005 21.7223 67.2631 21.8202 64.288C17.0787 61.1781 13.6837 57.6189 13.0647 55.1426Z" fill="#F5DCB4"/>
  </g>
</svg>