<svg viewBox="0 0 90 90" fill="none" xmlns="http://www.w3.org/2000/svg" id='img5'>
  <g clip-path="url(#clip0)">
    <path d="M74.0321 31.9359C82.8509 31.9359 90 24.7868 90 15.968C90 7.1491 82.8509 0 74.0321 0C65.2132 0 58.0641 7.1491 58.0641 15.968C58.0641 24.7868 65.2132 31.9359 74.0321 31.9359Z" fill="#824641"/>
    <path d="M74.0321 26.1292C79.6439 26.1292 84.1933 21.5799 84.1933 15.968C84.1933 10.3561 79.6439 5.80676 74.0321 5.80676C68.4202 5.80676 63.8708 10.3561 63.8708 15.968C63.8708 21.5799 68.4202 26.1292 74.0321 26.1292Z" fill="#643C3C"/>
    <path d="M15.968 31.9359C24.7868 31.9359 31.9359 24.7868 31.9359 15.968C31.9359 7.1491 24.7868 0 15.968 0C7.1491 0 0 7.1491 0 15.968C0 24.7868 7.1491 31.9359 15.968 31.9359Z" fill="#824641"/>
    <path d="M15.968 26.1292C21.5799 26.1292 26.1292 21.5799 26.1292 15.968C26.1292 10.3561 21.5799 5.80676 15.968 5.80676C10.3561 5.80676 5.80676 10.3561 5.80676 15.968C5.80676 21.5799 10.3561 26.1292 15.968 26.1292Z" fill="#643C3C"/>
    <path d="M45 90C68.249 90 87.0961 71.8022 87.0961 49.3541C87.0961 26.906 68.249 8.70819 45 8.70819C21.751 8.70819 2.9039 26.906 2.9039 49.3541C2.9039 71.8022 21.751 90 45 90Z" fill="#965A50"/>
    <path d="M45 84.1936C51.0127 84.1936 55.887 80.2942 55.887 75.484C55.887 70.6738 51.0127 66.7744 45 66.7744C38.9873 66.7744 34.113 70.6738 34.113 75.484C34.113 80.2942 38.9873 84.1936 45 84.1936Z" fill="#EBC9A0"/>
    <path d="M15.9678 47.9032C15.9678 31.7704 23.9145 17.6279 35.8469 9.68451C17.0007 13.721 2.9032 29.9437 2.9032 49.3548C2.9032 71.1772 20.7165 88.9777 43.0689 89.9529C27.2262 83.4926 15.9678 67.1077 15.9678 47.9032Z" fill="#824641"/>
    <path d="M27.5805 53.7096C25.1755 53.7096 23.2257 51.7598 23.2257 49.3548V47.9032C23.2257 45.4982 25.1755 43.5484 27.5805 43.5484C29.9856 43.5484 31.9353 45.4982 31.9353 47.9032V49.3548C31.9353 51.76 29.9858 53.7096 27.5805 53.7096Z" fill="#4B3F4E"/>
    <path d="M27.5806 43.5484V48.629C27.5806 49.8315 28.5554 50.8064 29.758 50.8064C30.9605 50.8064 31.9354 49.8315 31.9354 48.629V47.9032C31.9354 45.4982 29.9858 43.5484 27.5806 43.5484Z" fill="#5D5360"/>
    <path d="M27.5801 47.9036C28.3818 47.9036 29.0317 47.2536 29.0317 46.452C29.0317 45.6503 28.3818 45.0004 27.5801 45.0004C26.7784 45.0004 26.1285 45.6503 26.1285 46.452C26.1285 47.2536 26.7784 47.9036 27.5801 47.9036Z" fill="white"/>
    <path d="M62.4194 53.7096C60.0143 53.7096 58.0646 51.7598 58.0646 49.3548V47.9032C58.0646 45.4982 60.0143 43.5484 62.4194 43.5484C64.8244 43.5484 66.7742 45.4982 66.7742 47.9032V49.3548C66.7742 51.76 64.8244 53.7096 62.4194 53.7096Z" fill="#4B3F4E"/>
    <path d="M62.4194 43.5484V48.629C62.4194 49.8315 63.3943 50.8064 64.5968 50.8064C65.7993 50.8064 66.7742 49.8315 66.7742 48.629V47.9032C66.7742 45.4982 64.8244 43.5484 62.4194 43.5484Z" fill="#5D5360"/>
    <path d="M62.4199 47.9036C63.2216 47.9036 63.8715 47.2536 63.8715 46.452C63.8715 45.6503 63.2216 45.0004 62.4199 45.0004C61.6182 45.0004 60.9683 45.6503 60.9683 46.452C60.9683 47.2536 61.6182 47.9036 62.4199 47.9036Z" fill="white"/>
    <path d="M50.6452 65.3225C48.5007 65.3225 46.5339 65.8209 45 66.6499C43.4661 65.8207 41.4995 65.3225 39.3548 65.3225C34.4556 65.3225 30.4838 67.9222 30.4838 71.129C30.4838 74.3357 34.4556 76.9354 39.3548 76.9354C41.4993 76.9354 43.4661 76.437 45 75.608C46.5339 76.4372 48.5005 76.9354 50.6452 76.9354C55.5444 76.9354 59.5162 74.3357 59.5162 71.129C59.5162 67.9222 55.5444 65.3225 50.6452 65.3225Z" fill="#F5DCB4"/>
    <path d="M52.2579 65.3226C52.2579 67.7276 49.0084 71.129 44.9999 71.129C40.9914 71.129 37.7419 67.7276 37.7419 65.3226C37.7419 62.9176 40.9914 60.9678 44.9999 60.9678C49.0084 60.9678 52.2579 62.9174 52.2579 65.3226Z" fill="#5D5360"/>
    <path d="M59.4877 70.8441C59.3325 70.068 58.5812 69.5725 57.8063 69.7136C57.0268 69.856 56.5078 70.6096 56.6369 71.3913C56.6439 71.4352 56.8056 72.4829 55.9805 73.337C55.2732 74.0698 53.2786 75.1941 47.8995 74.4966C47.4182 74.4342 46.9351 74.3875 46.4514 74.3564V70.4443C46.4514 69.6428 45.8013 69.6774 44.9998 69.6774C44.1982 69.6774 43.5482 69.6426 43.5482 70.4443V74.3562C43.0643 74.3873 42.5814 74.4341 42.1001 74.4965C36.7203 75.194 34.7264 74.0698 34.0191 73.3368C33.194 72.4827 33.3557 71.435 33.3585 71.4138C33.5158 70.627 33.0062 69.8629 32.2201 69.7055C31.4284 69.5496 30.6685 70.0578 30.5119 70.8439C30.3291 71.7597 30.4083 73.7251 31.8672 75.2866C33.3167 76.8382 35.711 77.6185 39.0083 77.6185C40.07 77.6185 41.2268 77.5376 42.4743 77.3754C44.1499 77.1571 45.8497 77.1571 47.5252 77.3754C52.6456 78.0416 56.215 77.3378 58.1324 75.2866C59.5912 73.7253 59.6707 71.7599 59.4877 70.8441Z" fill="#D4AF91"/>
    <path d="M47.9032 69.6774C43.8947 69.6774 40.6452 65.7902 40.6452 63.0415C40.6452 62.5779 40.7674 62.1381 40.9402 61.7124C39.0106 62.4952 37.7418 63.8198 37.7418 65.3226C37.7418 67.7276 40.9913 71.129 44.9998 71.129C46.8462 71.129 48.5126 70.3927 49.7937 69.3791C49.1901 69.5649 48.5583 69.6774 47.9032 69.6774Z" fill="#4B3F4E"/>
  </g>
</svg>