<svg viewBox="0 0 90 90" fill="none" xmlns="http://www.w3.org/2000/svg" id="img6">
  <path d="M90 1.97578C90 1.97578 88.5498 27.2872 71.1302 31.642L58.0655 17.1257C62.4204 11.3193 74.7942 -0.0144128 90 1.97578Z" fill="#FF96A0"/>
  <path d="M71.1302 31.6422L64.1879 23.9286C66.7753 15.6742 78.3884 4.06107 89.7488 4.35797C88.8884 10.7619 85.2715 28.1069 71.1302 31.6422Z" fill="#E6646E"/>
  <path d="M0 1.97578C0 1.97578 1.4502 27.2872 18.8698 31.642L31.9345 17.1257C27.5796 11.3193 15.2058 -0.0144128 0 1.97578Z" fill="#FF96A0"/>
  <path d="M18.8698 31.6422L25.8121 23.9286C23.2247 15.6742 11.6116 4.06107 0.251007 4.35797C1.11163 10.7619 4.72851 28.1069 18.8698 31.6422Z" fill="#E6646E"/>
  <path d="M81.2902 56.32C81.2902 73.9577 65.0422 88.2559 44.9993 88.2559C24.9564 88.2559 8.70837 73.9578 8.70837 56.32C8.70837 35.997 24.9564 12.7709 44.9993 12.7709C65.0422 12.7709 81.2902 35.997 81.2902 56.32Z" fill="#FFAAB4"/>
  <path d="M32.564 70.9968C34.1264 75.9723 38.4226 79.5461 43.4781 79.5461H46.5205C51.6301 79.5461 55.9644 75.8953 57.4838 70.8363L32.564 70.9968Z" fill="#DC4655"/>
  <path d="M61.3157 65.4757C61.3157 74.79 49.9022 71.8451 45.0121 71.8451C40.224 71.8451 28.7154 74.79 28.7154 65.4757C28.7154 55.9626 36.0039 49.2852 45.0062 49.2852C54.0084 49.2852 61.3157 55.9626 61.3157 65.4757Z" fill="#E6646E"/>
  <path d="M21.2892 56.8411C21.2892 39.5764 31.1643 20.392 45.0128 12.7716C45.0083 12.7716 45.0039 12.771 44.9993 12.771C24.9564 12.771 8.70837 35.9972 8.70837 56.3201C8.70837 72.964 23.1789 86.6276 41.6514 88.1156C29.5945 82.4572 21.2892 70.5809 21.2892 56.8411Z" fill="#FF96A0"/>
  <path d="M41.5836 64.0798C42.5275 62.3283 42.1355 60.2848 40.7081 59.5156C39.2806 58.7463 37.3582 59.5426 36.4143 61.2941C35.4704 63.0456 35.8624 65.0891 37.2899 65.8583C38.7173 66.6276 40.6397 65.8313 41.5836 64.0798Z" fill="#A5465A"/>
  <path d="M48.4185 64.0794C49.3624 65.8309 51.2847 66.6271 52.7122 65.8579C54.1396 65.0886 54.5316 63.0451 53.5877 61.2936C52.6438 59.5421 50.7214 58.7458 49.294 59.5151C47.8666 60.2843 47.4746 62.3278 48.4185 64.0794Z" fill="#A5465A"/>
  <path d="M29.0313 47.6102C26.6261 47.6102 24.6764 45.6604 24.6764 43.2552V41.8036C24.6764 39.3984 26.6261 37.4486 29.0313 37.4486C31.4366 37.4486 33.3863 39.3984 33.3863 41.8036V43.2552C33.3861 45.6604 31.4364 47.6102 29.0313 47.6102Z" fill="#4B3F4E"/>
  <path d="M29.0312 37.4488V42.5296C29.0312 43.7321 30.006 44.707 31.2086 44.707C32.4111 44.707 33.386 43.7321 33.386 42.5296V41.8038C33.3861 39.3986 31.4364 37.4488 29.0312 37.4488Z" fill="#5D5360"/>
  <path d="M29.032 41.8041C29.8337 41.8041 30.4837 41.1542 30.4837 40.3525C30.4837 39.5508 29.8337 38.9009 29.032 38.9009C28.2304 38.9009 27.5804 39.5508 27.5804 40.3525C27.5804 41.1542 28.2304 41.8041 29.032 41.8041Z" fill="white"/>
  <path d="M60.9673 47.6102C58.5621 47.6102 56.6123 45.6604 56.6123 43.2552V41.8036C56.6123 39.3984 58.5621 37.4486 60.9673 37.4486C63.3725 37.4486 65.3223 39.3984 65.3223 41.8036V43.2552C65.3223 45.6604 63.3725 47.6102 60.9673 47.6102Z" fill="#4B3F4E"/>
  <path d="M60.9673 37.4488V42.5296C60.9673 43.7321 61.9421 44.707 63.1447 44.707C64.3472 44.707 65.3221 43.7321 65.3221 42.5296V41.8038C65.3222 39.3986 63.3725 37.4488 60.9673 37.4488Z" fill="#5D5360"/>
  <path d="M60.968 41.8041C61.7697 41.8041 62.4196 41.1542 62.4196 40.3525C62.4196 39.5508 61.7697 38.9009 60.968 38.9009C60.1663 38.9009 59.5164 39.5508 59.5164 40.3525C59.5164 41.1542 60.1663 41.8041 60.968 41.8041Z" fill="white"/>
</svg>