<svg viewBox="0 0 90 90" fill="none" xmlns="http://www.w3.org/2000/svg" id="img7">
  <g clip-path="url(#clip0)">
    <path d="M74.032 31.9359C82.8509 31.9359 90 24.7868 90 15.968C90 7.1491 82.8509 0 74.032 0C65.2132 0 58.0641 7.1491 58.0641 15.968C58.0641 24.7868 65.2132 31.9359 74.032 31.9359Z" fill="#4B3F4E"/>
    <path d="M74.032 26.1292C79.6439 26.1292 84.1932 21.5799 84.1932 15.968C84.1932 10.3561 79.6439 5.80676 74.032 5.80676C68.4201 5.80676 63.8708 10.3561 63.8708 15.968C63.8708 21.5799 68.4201 26.1292 74.032 26.1292Z" fill="#6F6571"/>
    <path d="M15.968 31.9359C24.7868 31.9359 31.9359 24.7868 31.9359 15.968C31.9359 7.1491 24.7868 0 15.968 0C7.1491 0 0 7.1491 0 15.968C0 24.7868 7.1491 31.9359 15.968 31.9359Z" fill="#4B3F4E"/>
    <path d="M15.968 26.1292C21.5798 26.1292 26.1292 21.5799 26.1292 15.968C26.1292 10.3561 21.5798 5.80676 15.968 5.80676C10.3561 5.80676 5.80675 10.3561 5.80675 15.968C5.80675 21.5799 10.3561 26.1292 15.968 26.1292Z" fill="#6F6571"/>
    <path d="M45 90C68.249 90 87.0961 71.8022 87.0961 49.3541C87.0961 26.906 68.249 8.70818 45 8.70818C21.751 8.70818 2.90392 26.906 2.90392 49.3541C2.90392 71.8022 21.751 90 45 90Z" fill="#EDEBED"/>
    <path d="M54.4964 56.4608C58.5048 63.4033 66.5351 66.2711 72.4326 62.866C78.3301 59.461 79.8616 51.0726 75.8532 44.1301C71.8448 37.1876 63.8145 34.3199 57.917 37.7249C52.0195 41.1299 50.488 49.5183 54.4964 56.4608Z" fill="#4B3F4E"/>
    <path d="M15.9678 47.9032C15.9678 31.7704 23.9145 17.6279 35.8469 9.68451C17.0007 13.721 2.90323 29.9437 2.90323 49.3548C2.90323 71.1772 20.7165 88.9777 43.0689 89.9529C27.2263 83.4926 15.9678 67.1077 15.9678 47.9032Z" fill="#DBD9DC"/>
    <path d="M62.4194 53.7096C60.0144 53.7096 58.0646 51.7598 58.0646 49.3548V47.9032C58.0646 45.4982 60.0144 43.5484 62.4194 43.5484C64.8245 43.5484 66.7742 45.4982 66.7742 47.9032V49.3548C66.7742 51.76 64.8245 53.7096 62.4194 53.7096Z" fill="#5D5360"/>
    <path d="M62.4194 43.5484V48.629C62.4194 49.8315 63.3943 50.8064 64.5968 50.8064C65.7993 50.8064 66.7742 49.8315 66.7742 48.629V47.9032C66.7742 45.4982 64.8244 43.5484 62.4194 43.5484Z" fill="#6F6571"/>
    <path d="M62.4199 47.9036C63.2216 47.9036 63.8715 47.2536 63.8715 46.452C63.8715 45.6503 63.2216 45.0004 62.4199 45.0004C61.6182 45.0004 60.9683 45.6503 60.9683 46.452C60.9683 47.2536 61.6182 47.9036 62.4199 47.9036Z" fill="white"/>
    <path d="M59.5162 71.1289C59.5162 67.9221 55.5444 65.3225 50.6452 65.3225C48.5005 65.3225 46.5339 65.8209 45 66.6498C43.4661 65.8209 41.4995 65.3225 39.3548 65.3225C34.4556 65.3225 30.4838 67.9221 30.4838 71.1289C30.4838 73.0565 31.9249 74.7599 34.1337 75.816C34.3536 80.471 39.1273 84.1935 45 84.1935C50.8727 84.1935 55.6464 80.471 55.8663 75.816C58.0751 74.7599 59.5162 73.0565 59.5162 71.1289Z" fill="white"/>
    <path d="M52.258 65.3226C52.258 67.7276 49.0085 71.129 45 71.129C40.9915 71.129 37.742 67.7276 37.742 65.3226C37.742 62.9176 40.9915 60.9678 45 60.9678C49.0085 60.9678 52.258 62.9174 52.258 65.3226Z" fill="#5D5360"/>
    <path d="M59.4877 70.8441C59.3325 70.068 58.5812 69.5725 57.8064 69.7136C57.0268 69.856 56.5079 70.6096 56.6369 71.3913C56.6439 71.4352 56.8056 72.4829 55.9805 73.337C55.2732 74.0698 53.2786 75.1941 47.8995 74.4966C47.4182 74.4342 46.9352 74.3875 46.4514 74.3563V70.6936C46.4514 69.892 45.8014 69.6776 44.9998 69.6776C44.1983 69.6776 43.5482 69.8919 43.5482 70.6936V74.3563C43.0643 74.3875 42.5814 74.4342 42.1001 74.4966C36.7203 75.1941 34.7264 74.07 34.0191 73.337C33.194 72.4829 33.3557 71.4352 33.3585 71.4139C33.5158 70.6271 33.0063 69.863 32.2202 69.7057C31.4284 69.5498 30.6685 70.058 30.5119 70.8441C30.3291 71.7599 30.4084 73.7253 31.8672 75.2868C33.3167 76.8384 35.711 77.6187 39.0083 77.6187C40.07 77.6187 41.2268 77.5378 42.4744 77.3756C44.1499 77.1572 45.8497 77.1572 47.5253 77.3756C52.6456 78.0418 56.215 77.3379 58.1324 75.2868C59.5913 73.7253 59.6707 71.7599 59.4877 70.8441Z" fill="#6F6571"/>
    <path d="M47.9032 69.6774C43.8947 69.6774 40.6452 65.7902 40.6452 63.0415C40.6452 62.578 40.7674 62.1382 40.9402 61.7124C39.0106 62.4952 37.7419 63.8198 37.7419 65.3226C37.7419 67.7276 40.9913 71.129 44.9998 71.129C46.8463 71.129 48.5127 70.3927 49.7937 69.3791C49.1901 69.5649 48.5584 69.6774 47.9032 69.6774Z" fill="#4B3F4E"/>
    <path d="M35.5068 56.4589C39.5151 49.5164 37.9837 41.128 32.0862 37.723C26.1887 34.318 18.1584 37.1857 14.15 44.1282C10.1416 51.0707 11.673 59.4591 17.5705 62.8641C23.468 66.2691 31.4984 63.4014 35.5068 56.4589Z" fill="#4B3F4E"/>
    <path d="M27.5806 53.7096C25.1756 53.7096 23.2258 51.7598 23.2258 49.3548V47.9032C23.2258 45.4982 25.1756 43.5484 27.5806 43.5484C29.9857 43.5484 31.9354 45.4982 31.9354 47.9032V49.3548C31.9354 51.76 29.9858 53.7096 27.5806 53.7096Z" fill="#5D5360"/>
    <path d="M27.5806 43.5484V48.629C27.5806 49.8315 28.5554 50.8064 29.758 50.8064C30.9605 50.8064 31.9354 49.8315 31.9354 48.629V47.9032C31.9354 45.4982 29.9858 43.5484 27.5806 43.5484Z" fill="#6F6571"/>
    <path d="M27.5801 47.9036C28.3818 47.9036 29.0317 47.2536 29.0317 46.452C29.0317 45.6503 28.3818 45.0004 27.5801 45.0004C26.7784 45.0004 26.1285 45.6503 26.1285 46.452C26.1285 47.2536 26.7784 47.9036 27.5801 47.9036Z" fill="white"/>
  </g>
</svg>