<svg viewBox="0 0 90 90" fill="none" xmlns="http://www.w3.org/2000/svg" id="img8">
  <path d="M77.3249 0.73284C79.2787 -0.0135271 81.3785 1.46075 81.2876 3.55026C80.5549 20.3903 74.7582 34.9074 74.7582 34.9074L52.863 19.5444C61.5925 9.03024 72.1556 2.70774 77.3249 0.73284Z" fill="#D26437"/>
  <path d="M60.1615 24.6654C65.8511 15.3993 74.4331 6.5519 77.1502 4.97338C78.2516 4.33354 79.2188 5.89905 78.9721 7.96254C77.6599 18.9454 75.2799 28.81 73.8142 34.2452L60.1615 24.6654Z" fill="#B44632"/>
  <path d="M12.6751 0.73284C10.7212 -0.0135271 8.62153 1.46075 8.71241 3.55026C9.44507 20.3903 15.2418 34.9074 15.2418 34.9074L37.1369 19.5444C28.4075 9.03024 17.8444 2.70774 12.6751 0.73284Z" fill="#D26437"/>
  <path d="M29.8385 24.6654C24.1489 15.3993 15.5669 6.5519 12.8498 4.97338C11.7484 4.33354 10.7812 5.89905 11.0278 7.96254C12.3401 18.9454 14.7201 28.81 16.1858 34.2452L29.8385 24.6654Z" fill="#B44632"/>
  <path d="M45.0001 89.4639C49.8102 89.4639 53.7097 86.8644 53.7097 83.6578C53.7097 80.4512 49.8102 77.8518 45.0001 77.8518C40.1899 77.8518 36.2905 80.4512 36.2905 83.6578C36.2905 86.8644 40.1899 89.4639 45.0001 89.4639Z" fill="#EBC9A0"/>
  <path d="M34.8387 82.2057C24.6775 76.3993 7.84348 70.0777 7.84348 70.0777L9.45891 65.2312C8.77793 64.9078 4.11288 64.8468 0.00012207 66.2379L4.35493 58.9799H34.8387V82.2057Z" fill="#EBC9A0"/>
  <path d="M55.1613 82.2057C65.3225 76.3993 82.1565 70.0777 82.1565 70.0777L80.5411 65.2312C81.2221 64.9078 85.8871 64.8468 89.9999 66.2379L85.6451 58.9799H55.1613V82.2057Z" fill="#EBC9A0"/>
  <path d="M45 16.8833C66.16 16.8833 84.3251 38.0842 89.9346 65.9104C89.9566 66.0196 89.9784 66.1287 90 66.2381C90 66.2381 79.2944 55.1695 67.6814 61.0668C63.3749 63.2537 61.3306 68.0585 61.3306 73.3089C61.3306 82.0143 54.3523 86.831 46.0851 83.485C45.3843 83.2013 44.6156 83.2013 43.9147 83.485C35.6476 86.8312 28.6692 82.0144 28.6692 73.3089C28.6692 68.0585 26.6247 63.2537 22.3184 61.0668C10.7056 55.1695 0 66.2381 0 66.2381C0.0216211 66.1287 0.043418 66.0196 0.0653906 65.9104C5.67492 38.0841 23.84 16.8833 45 16.8833Z" fill="#EB874B"/>
  <path d="M29.7581 57.5283C26.9637 57.5283 24.6775 55.2421 24.6775 52.4477V49.5445C24.6775 46.7501 26.9637 44.4639 29.7581 44.4639C32.5525 44.4639 34.8387 46.7501 34.8387 49.5445V52.4477C34.8388 55.2421 32.5525 57.5283 29.7581 57.5283Z" fill="#4B3F4E"/>
  <path d="M29.758 44.4639C29.5096 44.4639 29.2712 44.5027 29.0322 44.5375V51.7219C29.0322 53.3252 30.3321 54.6251 31.9354 54.6251C33.5388 54.6251 34.8386 53.3252 34.8386 51.7219V49.5445C34.8387 46.7501 32.5524 44.4639 29.758 44.4639Z" fill="#5D5360"/>
  <path d="M29.758 50.2712C30.9605 50.2712 31.9354 49.2963 31.9354 48.0938C31.9354 46.8912 30.9605 45.9164 29.758 45.9164C28.5555 45.9164 27.5806 46.8912 27.5806 48.0938C27.5806 49.2963 28.5555 50.2712 29.758 50.2712Z" fill="white"/>
  <path d="M60.242 57.5283C57.4476 57.5283 55.1614 55.2421 55.1614 52.4477V49.5445C55.1614 46.7501 57.4476 44.4639 60.242 44.4639C63.0364 44.4639 65.3226 46.7501 65.3226 49.5445V52.4477C65.3226 55.2421 63.0362 57.5283 60.242 57.5283Z" fill="#4B3F4E"/>
  <path d="M60.242 44.4639C59.9936 44.4639 59.7553 44.5027 59.5162 44.5375V51.7219C59.5162 53.3252 60.8161 54.6251 62.4194 54.6251C64.0229 54.6251 65.3226 53.3252 65.3226 51.7219V49.5445C65.3226 46.7501 63.0362 44.4639 60.242 44.4639Z" fill="#5D5360"/>
  <path d="M60.242 50.2712C61.4446 50.2712 62.4194 49.2963 62.4194 48.0938C62.4194 46.8912 61.4446 45.9164 60.242 45.9164C59.0395 45.9164 58.0646 46.8912 58.0646 48.0938C58.0646 49.2963 59.0395 50.2712 60.242 50.2712Z" fill="white"/>
  <path d="M43.5484 83.619C43.6741 83.5715 43.7999 83.523 43.9262 83.4727C44.6154 83.1983 45.3848 83.1983 46.074 83.4727C46.2002 83.523 46.3261 83.5715 46.4518 83.619V77.8509H43.5486L43.5484 83.619Z" fill="#D26437"/>
  <path d="M44.9161 69.1413C48.1693 69.1413 50.8065 71.2967 50.8065 73.9557C50.8065 76.52 48.331 77.8702 46.5444 78.8687C45.5087 79.4473 44.3237 79.4473 43.288 78.8687C41.5014 77.8702 39.0258 76.52 39.0258 73.9557C39.0257 71.2967 41.6629 69.1413 44.9161 69.1413Z" fill="#5D5360"/>
  <path d="M46.359 78.7444C44.5723 77.4608 42.0968 75.7248 42.0968 72.4278C42.0968 71.3473 42.3837 70.3469 42.8467 69.4628C40.6185 70.1492 39.0257 71.8942 39.0257 73.9556C39.0257 76.5199 41.5013 77.87 43.2879 78.8685C44.3236 79.4472 45.5087 79.4472 46.5442 78.8685C46.5521 78.8641 46.5611 78.859 46.5692 78.8544C46.4999 78.812 46.427 78.7934 46.359 78.7444Z" fill="#4B3F4E"/>
  <path d="M45 16.8833L42.1771 17.0244C22.24 18.8112 5.42355 39.3309 0.0653906 65.9102C0.043418 66.0194 0.0216211 66.1286 0 66.2379C0 66.2379 8.63983 57.314 18.8149 59.772C20.0872 23.619 42.6371 16.8833 45 16.8833Z" fill="#D26437"/>
</svg>