<svg viewBox="0 0 90 90" fill="none" xmlns="http://www.w3.org/2000/svg" id="img9">
  <g clip-path="url(#clip0)">
  <path d="M35.0002 78.5707C34.2106 78.5707 33.5716 79.2104 33.5716 79.9993V80.2274C33.5716 80.9647 32.9968 81.5897 32.2617 81.6511L19.6168 82.7051C17.9064 82.8475 16.4499 83.992 15.9073 85.6201L15.0744 88.1186C14.8246 88.8671 15.2293 89.6762 15.977 89.926C16.1277 89.9763 16.2797 90 16.429 90C17.0275 90 17.584 89.6212 17.7835 89.0228L18.6164 86.5243C18.7978 85.9816 19.2833 85.6 19.8539 85.5526L20.7147 85.4808V88.5709C20.7147 89.3598 21.3536 89.9995 22.1433 89.9995C22.9329 89.9995 23.5718 89.3598 23.5718 88.5709V85.2428L25.1976 85.1073L26.5028 89.023C26.7023 89.6216 27.259 90.0002 27.8574 90.0002C28.0066 90.0002 28.1586 89.9765 28.3093 89.9262C29.0571 89.6764 29.4617 88.8673 29.2119 88.1188L28.1266 84.863L32.4987 84.4986C34.703 84.3151 36.4286 82.4388 36.4286 80.2276V79.9994C36.4286 79.2104 35.7898 78.5707 35.0002 78.5707Z" fill="#EBAF4B"/>
  <path d="M54.9998 78.5707C55.7894 78.5707 56.4284 79.2104 56.4284 79.9993V80.2274C56.4284 80.9647 57.0032 81.5897 57.7383 81.6511L70.3833 82.7051C72.0936 82.8475 73.5501 83.992 74.0927 85.6201L74.9256 88.1186C75.1754 88.8671 74.7707 89.6762 74.023 89.926C73.8723 89.9763 73.7203 90 73.571 90C72.9725 90 72.416 89.6212 72.2165 89.0228L71.3836 86.5243C71.2022 85.9816 70.7167 85.6 70.1461 85.5526L69.2853 85.4808V88.5709C69.2853 89.3598 68.6464 89.9995 67.8568 89.9995C67.0672 89.9995 66.4282 89.3598 66.4282 88.5709V85.2428L64.8024 85.1073L63.4972 89.023C63.2977 89.6216 62.741 90.0002 62.1427 90.0002C61.9934 90.0002 61.8414 89.9765 61.6907 89.9262C60.943 89.6764 60.5383 88.8673 60.7881 88.1188L61.8734 84.863L57.5014 84.4986C55.2971 84.3151 53.5714 82.4388 53.5714 80.2276V79.9994C53.5714 79.2104 54.2102 78.5707 54.9998 78.5707Z" fill="#EBAF4B"/>
  <path d="M45 84.2851C63.9356 84.2851 79.286 68.6152 79.286 49.2854C79.286 29.9556 63.9356 14.2857 45 14.2857C26.0644 14.2857 10.714 29.9556 10.714 49.2854C10.714 68.6152 26.0644 84.2851 45 84.2851Z" fill="#824D51"/>
  <path d="M45 81.4286C57.6234 81.4286 67.8567 67.6774 67.8567 50.7145C67.8567 33.7515 57.6234 20.0003 45 20.0003C32.3766 20.0003 22.1432 33.7515 22.1432 50.7145C22.1432 67.6774 32.3766 81.4286 45 81.4286Z" fill="#C0826C"/>
  <path d="M83.571 24.2855L79.0256 28.8308C79.1905 27.8085 79.2853 26.7698 79.2853 25.7141C79.2853 11.5126 63.9352 0 45 0C26.0647 0 10.7147 11.5126 10.7147 25.7141C10.7147 26.7698 10.8094 27.8085 10.9743 28.8308L6.42896 24.2855C6.42896 24.2855 1.26189 37.2031 0.754759 45.8413C0.713275 46.5463 1.26892 47.1422 1.9752 47.1422H5.00039V50.3017C5.00039 50.9461 5.50031 51.4787 6.14331 51.5216C9.47892 51.7445 19.619 52.0648 29.9275 48.812C29.2859 48.5706 45 41.4278 45 41.4278C45 41.4278 59.2855 48.5706 60.0724 48.812C70.3809 52.0646 80.521 51.7443 83.8566 51.5216C84.4996 51.4787 84.9995 50.9459 84.9995 50.3017V47.1422H88.0247C88.731 47.1422 89.2866 46.5462 89.2452 45.8413C88.738 37.2031 83.571 24.2855 83.571 24.2855Z" fill="#965A50"/>
  <path d="M78.9031 11.0188C83.7621 8.29371 85.4835 4.48806 86.0934 2.137C86.3269 1.23682 85.4555 0.469894 84.578 0.777862C73.6174 4.62535 55.7694 -0.923341 46.8126 14.2476C45.9905 15.6399 44.0096 15.6399 43.1877 14.2476C34.2306 -0.923341 16.3826 4.62535 5.42212 0.778038C4.54463 0.47007 3.67311 1.237 3.90672 2.13717C4.51668 4.48806 6.23827 8.29389 11.097 11.019C11.9369 11.4901 12.1042 12.616 11.4171 13.2908C6.91503 17.7117 4.3532 24.1006 5.14246 31.0696C6.24425 40.7999 14.0725 48.684 23.7961 49.8426C32.821 50.9179 40.8955 46.3743 45.0002 39.2534C49.105 46.3743 57.1795 50.9179 66.2042 49.8426C75.9279 48.684 83.7561 40.7999 84.8579 31.0696C85.647 24.1006 83.0853 17.7117 78.5832 13.2908C77.8959 12.6158 78.0631 11.4899 78.9031 11.0188Z" fill="#AF6E5A"/>
  <path d="M26.4288 42.8571C34.3185 42.8571 40.7145 36.4612 40.7145 28.5714C40.7145 20.6816 34.3185 14.2857 26.4288 14.2857C18.539 14.2857 12.1431 20.6816 12.1431 28.5714C12.1431 36.4612 18.539 42.8571 26.4288 42.8571Z" fill="#EBAF4B"/>
  <path d="M26.4288 38.5711C31.9515 38.5711 36.4286 34.0941 36.4286 28.5713C36.4286 23.0486 31.9515 18.5715 26.4288 18.5715C20.906 18.5715 16.429 23.0486 16.429 28.5713C16.429 34.0941 20.906 38.5711 26.4288 38.5711Z" fill="#FFC850"/>
  <path d="M45.9363 50.3598L48.7752 42.7896C49.0862 41.9605 48.8837 41.0262 48.2575 40.4001L47.0202 39.1627C45.9043 38.0469 44.0954 38.0469 42.9797 39.1627L41.7424 40.4001C41.1163 41.0262 40.9139 41.9605 41.2247 42.7896L44.0636 50.3598C44.3881 51.225 45.6119 51.225 45.9363 50.3598Z" fill="#EBAF4B"/>
  <path d="M26.4288 35.7138C23.2728 35.7138 20.7145 33.1555 20.7145 29.9995V27.1424C20.7145 23.9866 23.2728 21.4281 26.4288 21.4281C29.5846 21.4281 32.143 23.9864 32.143 27.1424V29.9995C32.143 33.1555 29.5847 35.7138 26.4288 35.7138Z" fill="#4B3F4E"/>
  <path d="M27.1424 28.5714C28.3259 28.5714 29.2852 27.612 29.2852 26.4286C29.2852 25.2452 28.3259 24.2858 27.1424 24.2858C25.959 24.2858 24.9997 25.2452 24.9997 26.4286C24.9997 27.612 25.959 28.5714 27.1424 28.5714Z" fill="white"/>
  <path d="M63.5712 42.8571C71.461 42.8571 77.8569 36.4612 77.8569 28.5714C77.8569 20.6816 71.461 14.2857 63.5712 14.2857C55.6814 14.2857 49.2855 20.6816 49.2855 28.5714C49.2855 36.4612 55.6814 42.8571 63.5712 42.8571Z" fill="#EBAF4B"/>
  <path d="M63.5712 38.5711C69.0939 38.5711 73.571 34.0941 73.571 28.5713C73.571 23.0486 69.0939 18.5715 63.5712 18.5715C58.0485 18.5715 53.5714 23.0486 53.5714 28.5713C53.5714 34.0941 58.0485 38.5711 63.5712 38.5711Z" fill="#FFC850"/>
  <path d="M63.5712 35.7138C60.4153 35.7138 57.8569 33.1555 57.8569 29.9995V27.1424C57.8569 23.9866 60.4153 21.4281 63.5712 21.4281C66.727 21.4281 69.2855 23.9864 69.2855 27.1424V29.9995C69.2855 33.1555 66.727 35.7138 63.5712 35.7138Z" fill="#4B3F4E"/>
  <path d="M64.2849 28.5714C65.4683 28.5714 66.4276 27.612 66.4276 26.4286C66.4276 25.2452 65.4683 24.2858 64.2849 24.2858C63.1015 24.2858 62.1421 25.2452 62.1421 26.4286C62.1421 27.612 63.1015 28.5714 64.2849 28.5714Z" fill="white"/>
</g>
</svg>